<svg xmlns="http://www.w3.org/2000/svg" viewBox="0 0 100 100">
<path d="M 12.125 15 C 8.231006 15 5 18.231006 5 22.125 L 5 77.875 C 5 81.768994 8.231006 85 12.125 85 L 67.875 85 C 71.768994 85 75 81.768994 75 77.875 L 75 60.28125 L 94.125 41.1875 A 3.0003 3.0003 0 0 0 94.125 36.9375 L 85.0625 27.875 A 3.0003 3.0003 0 0 0 82.90625 27 A 3.0003 3.0003 0 0 0 80.8125 27.875 L 75 33.6875 L 75 22.125 C 75 18.231006 71.768994 15 67.875 15 L 12.125 15 z M 12.125 21 L 67.875 21 C 68.556226 21 69 21.443774 69 22.125 L 69 39.71875 L 51.875 56.875 A 3.0003 3.0003 0 0 0 51 59 L 51 68 A 3.0003 3.0003 0 0 0 54 71 L 63 71 A 3.0003 3.0003 0 0 0 65.125 70.125 L 69 66.25 L 69 77.875 C 69 78.556226 68.556226 79 67.875 79 L 12.125 79 C 11.443774 79 11 78.556226 11 77.875 L 11 22.125 C 11 21.443774 11.443774 21 12.125 21 z M 19.6875 29 A 3.0040663 3.0040663 0 1 0 20 35 L 60 35 A 3.0003 3.0003 0 1 0 60 29 L 20 29 A 3.0003 3.0003 0 0 0 19.6875 29 z M 82.9375 34.25 L 87.75 39.0625 L 84.53125 42.28125 L 79.71875 37.46875 L 82.9375 34.25 z M 19.6875 41 A 3.0040663 3.0040663 0 1 0 20 47 L 55 47 A 3.0003 3.0003 0 1 0 55 41 L 20 41 A 3.0003 3.0003 0 0 0 19.6875 41 z M 75.46875 41.71875 L 80.28125 46.53125 L 61.75 65 L 57 65 L 57 60.25 L 75.46875 41.71875 z M 19.6875 53 A 3.0040663 3.0040663 0 1 0 20 59 L 44 59 A 3.0003 3.0003 0 1 0 44 53 L 20 53 A 3.0003 3.0003 0 0 0 19.6875 53 z M 19.6875 65 A 3.0040663 3.0040663 0 1 0 20 71 L 44 71 A 3.0003 3.0003 0 1 0 44 65 L 20 65 A 3.0003 3.0003 0 0 0 19.6875 65 z "></path>
</svg>