<svg width="182" height="147" viewBox="0 0 182 147" fill="none" xmlns="http://www.w3.org/2000/svg">
<path d="M105.31 34.4443C105.31 34.4443 75.4225 38.9459 70.8043 32.5558C66.1861 26.1657 64.3535 4.93914 91.9033 3.10482C119.453 1.2705 133.84 3.2428 137.594 15.5508C141.348 27.8588 147.769 67.6168 118.995 69.9512C90.2205 72.2857 65.9835 67.2018 70.539 110.433C70.539 110.433 44.8519 121.352 39.0152 84.067C33.1785 46.7817 51.3785 43.0583 69.3276 41.8633C87.2768 40.6682 112.489 41.5011 105.31 34.4443Z" fill="#B0A8FE"/>
<path d="M105.31 34.4443C105.31 34.4443 75.4225 38.9459 70.8043 32.5558C66.1861 26.1657 64.3535 4.93914 91.9033 3.10482C119.453 1.2705 133.84 3.2428 137.594 15.5508C141.348 27.8588 147.769 67.6168 118.995 69.9512C90.2205 72.2857 65.9835 67.2018 70.539 110.433C70.539 110.433 44.8519 121.352 39.0152 84.067C33.1785 46.7817 51.3785 43.0583 69.3277 41.8633C87.2768 40.6682 112.489 41.5011 105.31 34.4443Z" fill="#B0A8FE"/>
<path d="M109.219 112.225C109.219 112.225 139.107 107.724 143.725 114.114C148.343 120.504 150.176 141.73 122.626 143.565C95.0763 145.399 80.6898 143.427 76.9354 131.119C73.181 118.811 66.7604 79.0526 95.5347 76.7182C124.309 74.3837 148.546 79.4676 143.99 36.2366C143.99 36.2366 169.678 25.3171 175.514 62.6024C181.351 99.8877 163.151 103.611 145.202 104.806C127.253 106.001 102.041 105.168 109.219 112.225Z" fill="#DEF080"/>
<path d="M73.8061 19.2817C75.4119 23.9975 79.7167 26.7973 83.4209 25.5354C87.1252 24.2734 88.8262 19.4275 87.2203 14.7117C85.6145 9.99597 81.3097 7.19612 77.6055 8.45808C73.9012 9.72005 72.2002 14.5659 73.8061 19.2817Z" fill="white"/>
<path fill-rule="evenodd" clip-rule="evenodd" d="M82.9464 24.142C80.3062 25.0415 76.6562 23.0854 75.1993 18.807C73.7424 14.5287 75.4397 10.7509 78.08 9.85141C80.7202 8.95194 84.3702 10.9081 85.8271 15.1864C87.284 19.4647 85.5867 23.2426 82.9464 24.142ZM83.4209 25.5354C79.7167 26.7973 75.4119 23.9975 73.8061 19.2817C72.2002 14.5659 73.9012 9.72005 77.6055 8.45808C81.3097 7.19612 85.6145 9.99597 87.2203 14.7117C88.8262 19.4275 87.1252 24.2734 83.4209 25.5354Z" fill="#141414"/>
<path d="M78.4083 16.446C79.3259 19.1408 81.7078 20.7672 83.7283 20.0789C85.7488 19.3906 86.6428 16.648 85.7252 13.9533C84.8075 11.2586 82.4257 9.63211 80.4052 10.3205C78.3847 11.0088 77.4906 13.7513 78.4083 16.446Z" fill="#141414"/>
<path fill-rule="evenodd" clip-rule="evenodd" d="M88.1543 27.4097C88.5229 27.8953 88.428 28.5878 87.9424 28.9564C81.6959 33.6974 76.2146 33.5745 71.5111 33.469C70.8363 33.4538 71.6427 33.0839 71 33.0839L70 31.2312C70.6893 31.2312 70.9122 31.2453 71.6017 31.2594C76.27 31.3547 81.0032 31.4514 86.6076 27.1978C87.0932 26.8292 87.7857 26.9241 88.1543 27.4097Z" fill="#141414"/>
<path fill-rule="evenodd" clip-rule="evenodd" d="M46.6208 48.2489L46.6208 48.2487C41.2891 52.4489 37.8206 59.5118 37.9057 71.5976C37.8206 59.5119 41.2892 52.4491 46.6208 48.2489ZM39.0152 84.0668C39.0152 84.0668 39.0152 84.0669 39.0152 84.0669C39.0152 84.0669 39.0152 84.067 39.0152 84.067C39.0152 84.0669 39.0152 84.0669 39.0152 84.0668ZM53 6.33925L47.3712 43.319C45.7174 44.2689 44.155 45.4023 42.7219 46.759C35.3397 53.7478 32.3925 65.5532 35.3797 84.636C35.9921 88.5476 36.8221 92.0081 37.8364 95.0626L5.16455 91.4923L2.75798 3.08386L53 6.33925ZM21.6752 144.013C11.4768 144.9 1.0813 137.423 0.0752759 125.842C-0.851844 115.168 6.88071 104.83 17.9864 103.843C28.1847 102.955 38.6 110.61 39.6061 122.192C40.5134 132.51 33.3332 142.987 21.6752 143.993V144.013Z" fill="#FEBD99"/>
</svg>
