<svg width="397" height="321" viewBox="0 0 397 321" fill="none" xmlns="http://www.w3.org/2000/svg">
    <path d="M230.482 75.3845C230.482 75.3845 165.07 85.2367 154.962 71.2514C144.855 57.266 140.844 10.8098 201.139 6.79518C261.435 2.78059 292.921 7.09717 301.138 34.0344C309.355 60.9716 323.407 147.986 260.432 153.095C197.456 158.204 144.411 147.078 154.382 241.693C154.382 241.693 98.163 265.591 85.3888 183.989C72.6146 102.386 112.447 94.2373 151.73 91.6217C191.014 89.0061 246.192 90.8291 230.482 75.3845Z" fill="#B0A8FE" />
    <path d="M230.482 75.3845C230.482 75.3845 165.07 85.2367 154.962 71.2514C144.855 57.266 140.844 10.8098 201.139 6.79518C261.435 2.78059 292.921 7.09717 301.138 34.0344C309.355 60.9716 323.407 147.986 260.432 153.095C197.456 158.204 144.411 147.078 154.382 241.693C154.382 241.693 98.163 265.591 85.3888 183.989C72.6146 102.386 112.447 94.2373 151.73 91.6217C191.014 89.0061 246.192 90.8291 230.482 75.3845Z" fill="#B0A8FE" />
    <path d="M239.037 245.615C239.037 245.615 304.449 235.763 314.557 249.749C324.664 263.734 328.675 310.19 268.379 314.205C208.084 318.219 176.598 313.903 168.381 286.966C160.164 260.028 146.112 173.014 209.087 167.905C272.063 162.796 325.107 173.922 315.137 79.3073C315.137 79.3073 371.356 55.409 384.13 137.011C396.904 218.614 357.072 226.763 317.788 229.378C278.505 231.994 223.327 230.171 239.037 245.615Z" fill="#DEF080" />
    <path d="M161.531 42.1999C165.046 52.5208 174.467 58.6486 182.574 55.8867C190.681 53.1247 194.404 42.519 190.89 32.1981C187.375 21.8772 177.954 15.7495 169.847 18.5114C161.74 21.2733 158.017 31.8791 161.531 42.1999Z" fill="white" />
    <path fill-rule="evenodd" clip-rule="evenodd" d="M181.536 52.8372C175.757 54.8058 167.769 50.5246 164.581 41.1611C161.392 31.7976 165.107 23.5294 170.885 21.5608C176.663 19.5923 184.652 23.8735 187.84 33.237C191.029 42.6004 187.314 50.8686 181.536 52.8372ZM182.574 55.8867C174.467 58.6486 165.046 52.5208 161.531 42.1999C158.017 31.8791 161.74 21.2733 169.847 18.5114C177.954 15.7495 187.375 21.8772 190.89 32.1981C194.404 42.519 190.681 53.1247 182.574 55.8867Z" fill="#141414" />
    <path d="M171.604 35.9936C173.612 41.8912 178.825 45.4509 183.247 43.9444C187.669 42.4379 189.626 36.4357 187.617 30.538C185.609 24.6404 180.396 21.0806 175.974 22.5871C171.552 24.0937 169.595 30.0959 171.604 35.9936Z" fill="#141414" />
    <path fill-rule="evenodd" clip-rule="evenodd" d="M192.934 59.9889C193.741 61.0518 193.533 62.5674 192.47 63.3741C178.799 73.7501 166.803 73.4811 156.509 73.2502C155.032 73.2171 156.797 72.4073 155.39 72.4073L153.202 68.3527C154.71 68.3527 155.198 68.3834 156.707 68.4142C166.924 68.6229 177.283 68.8344 189.549 59.525C190.612 58.7183 192.128 58.926 192.934 59.9889Z" fill="#141414" />
    <path fill-rule="evenodd" clip-rule="evenodd" d="M102.034 105.598L102.034 105.597C86.8195 117.583 78.5369 140.22 85.3885 183.989C86.1398 188.788 87.0414 193.223 88.073 197.318L88.0731 197.318C87.0416 193.222 86.14 188.788 85.3888 183.989C78.5372 140.221 86.8196 117.584 102.034 105.598ZM115.996 13.8742L103.676 94.8081C100.057 96.887 96.6374 99.3676 93.501 102.337C77.3443 117.633 70.894 143.47 77.4319 185.234C78.7721 193.795 80.5887 201.369 82.8087 208.054L11.3031 200.24L6.0361 6.74951L115.996 13.8742ZM47.4382 315.185C25.1182 317.128 2.36653 300.763 0.164748 275.416C-1.86434 252.056 15.0591 229.43 39.365 227.271C61.685 225.327 84.4798 242.081 86.6816 267.428C88.6675 290.011 72.9529 312.94 47.4382 315.142V315.185Z" fill="#FEBD99" />
</svg>
