<svg width="375" height="130" viewBox="0 0 375 130" fill="none" xmlns="http://www.w3.org/2000/svg">
<path d="M372.061 49.4314C370.159 51.31 364.833 55.9803 353.425 55.9803C337.83 55.9803 325.283 46.4964 325.283 29.1961C325.283 11.8957 337.837 2.41187 353.425 2.41187C365.217 2.41187 370.921 7.30093 370.921 7.30093L366.357 21.5984C366.357 21.5984 361.03 17.0866 354.564 17.0866C348.098 17.0866 342.545 20.8515 342.545 28.9773C342.545 37.1031 348.475 40.6416 354.564 40.6416C360.653 40.6416 364.833 38.1594 367.111 35.9035L372.053 49.4465L372.061 49.4314Z" fill="#FEBD99"/>
<path d="M249.834 3.16638H267.761L282.39 32.2141C282.39 32.2141 282.028 26.5554 282.028 22.783V3.16638H298.121V55.2259H280.926L265.565 26.1782C265.565 26.1782 265.927 31.8368 265.927 35.6092V55.2259H249.834V3.16638Z" fill="#FEBD99"/>
<path d="M141.943 55.2259V3.16638H158.994V22.0285H173.178V3.16638H190.23V55.2259H173.178V35.9865H158.994V55.2259H141.943Z" fill="#FEBD99"/>
<path d="M108.119 16.4453H95.9191V3.16638H137.416V16.4453H125.14V55.2259H108.119V16.4453Z" fill="#FEBD99"/>
<path d="M59.2436 34.8548L41.5962 3.16638H60.0584L67.5882 20.7459L75.1934 3.16638H93.6557L75.9328 34.8548V55.2259H59.2436V34.8548Z" fill="#FEBD99"/>
<path d="M20.3725 54.1845L5.04135 54.5844L3.36639 5.21085C8.39127 3.52835 14.1631 2.86441 19.4973 3.09075C36.9636 3.83015 46.1608 11.1939 45.6402 23.4317C45.263 32.3497 36.3299 40.7094 18.8635 40.0379L20.38 54.1845H20.3725ZM16.3285 15.6077L17.6337 28.4415C23.3452 27.5738 29.2528 25.2802 29.449 20.7231C29.6225 16.5583 26.4008 14.7928 22.5077 14.6268C20.463 14.5438 18.2675 14.906 16.3285 15.6077Z" fill="#FEBD99"/>
<path d="M228.278 22.5491C231.847 21.1684 235.74 21.3947 239.837 23.2281C242.734 24.5258 244.824 26.578 246.062 29.2338C246.077 11.7449 239.279 0.887817 220.032 0.887817C200.785 0.887817 194.002 11.7222 194.002 29.181C194.002 46.6398 201.985 57.4742 220.032 57.4742C232.82 57.4742 240.554 52.0344 243.972 42.6561C244.953 39.2458 245.85 34.1606 243.972 30.1241C243.911 30.0034 243.73 30.0185 243.7 30.1468C242.991 32.8704 241.241 36.6353 236.864 38.6347C236.48 38.8082 236.027 38.6121 235.876 38.2197C235.733 37.85 235.891 37.4275 236.246 37.2615C241.248 34.9755 242.357 30.1468 242.599 27.9889C241.693 26.9251 240.486 25.9971 238.909 25.2879C235.386 23.711 232.081 23.4922 229.093 24.6541C224.446 26.4573 221.669 30.9314 220.869 32.3725C220.598 32.9836 220.281 33.5646 219.896 34.1078C219.044 35.2093 217.022 34.304 217.67 33.391C219.172 30.275 219.76 27.5513 219.956 24.3674C220.024 23.3262 222.31 23.2658 222.243 24.7597C222.227 25.4765 222.19 26.2008 222.129 26.9326C223.646 25.2426 225.675 23.5375 228.263 22.5415L228.278 22.5491ZM231.477 30.026C231.576 28.2832 233.364 27.2043 234.948 27.9361C235.831 28.3435 236.397 29.2866 236.344 30.2524C236.246 31.9952 234.458 33.0666 232.873 32.3423C231.991 31.9349 231.425 30.9918 231.477 30.026Z" fill="#DEF080"/>
<path d="M318.009 37.8047L304.889 36.3712L303.968 2.56274L323.185 3.80764L318.009 37.8047ZM311.204 56.4556C307.303 56.7951 303.327 53.9356 302.942 49.5068C302.588 45.425 305.545 41.4715 309.793 41.0943C313.694 40.7548 317.677 43.6822 318.062 48.111C318.409 52.057 315.663 56.0633 311.204 56.4481V56.4556Z" fill="#FFF2E0"/>
<path d="M340.003 107.285V107.361C344.831 111.435 351.622 113.019 353.885 113.019C356.149 113.019 357.733 112.34 357.733 110.831C357.733 109.322 355.847 108.719 353.961 108.115L346.416 105.701C339.173 103.362 334.495 98.7596 334.495 90.7621C334.495 78.7658 345.284 73.6353 355.847 73.6353C362.788 73.6353 369.88 76.1251 374.407 79.8975L367.919 91.9692C363.995 88.4986 358.261 86.9896 354.79 86.9896C352.829 86.9896 351.32 87.6687 351.32 88.8759C351.32 90.9884 355.168 91.4411 359.016 92.7237L362.562 93.8555C370.257 96.4962 374.709 101.174 374.709 109.021C374.709 121.47 363.467 127.053 352.527 127.053C346.491 127.053 339.55 125.393 332.458 120.112L340.003 107.285Z" fill="#FEBD99"/>
<path d="M301.214 87.3668H288.992V74.0879H330.564V87.3668H318.266V126.147H301.214V87.3668Z" fill="#FEBD99"/>
<path d="M235.439 74.0879H253.923L269.013 103.136C269.013 103.136 268.636 97.4769 268.636 93.7045V74.0879H285.235V126.147H267.504L251.66 97.0997C251.66 97.0997 252.037 102.758 252.037 106.531V126.147H235.439V74.0879Z" fill="#FEBD99"/>
<path d="M191.671 74.0879H228.641V87.5177H208.647V93.1764H227.509V106.531H208.647V112.567H229.395V126.147H191.671V74.0879Z" fill="#FEBD99"/>
<path d="M126.446 74.0879H148.326L154.89 102.381L161.529 74.0879H183.409L186.427 126.147H169.678L169.074 96.3452L162.284 126.147H147.571L140.781 96.3452L140.177 126.147H123.428L126.446 74.0879Z" fill="#FEBD99"/>
<path d="M92.109 127.06C75.8876 127.06 63.8158 117.177 63.8158 100.201C63.8158 83.2247 75.8876 73.2655 92.109 73.2655C108.33 73.2655 120.402 83.2247 120.402 100.201C120.402 117.177 108.33 127.06 92.109 127.06ZM92.109 111.971C98.8994 111.971 103.2 106.991 103.2 99.8234C103.2 92.6558 98.8994 87.6762 92.109 87.6762C85.3186 87.6762 80.9426 92.6558 80.9426 99.8234C80.9426 106.991 85.3186 111.971 92.109 111.971Z" fill="#FEBD99"/>
<path fill-rule="evenodd" clip-rule="evenodd" d="M60.0811 103.792C59.3266 90.5659 53.5548 70.9418 40.8266 70.9418C37.1296 70.9418 34.338 72.9411 32.6329 76.0496C32.5876 76.2005 32.5272 76.3514 32.4593 76.5099C30.5807 80.8859 32.8819 88.642 33.1761 93.7121C33.1987 94.1271 32.8819 94.4817 32.4669 94.5043C32.4518 94.5043 32.4367 94.5043 32.4216 94.5043C32.0293 94.5043 31.6973 94.195 31.6671 93.7951C31.1692 85.2393 27.0874 78.7054 24.2279 75.348C21.3533 72.4055 17.5884 70.4287 12.6088 70.4287C0.899232 70.4363 0.22774 86.6879 0.899232 99.069C1.55563 112.401 7.63678 129.301 18.0185 129.882C18.3882 129.905 18.7579 129.769 19.0144 129.505C20.7346 127.702 20.3649 123.431 20.0254 121.711C19.9651 121.402 20.1612 121.107 20.4706 121.047C20.7724 120.987 21.0742 121.183 21.1345 121.492C21.1798 121.734 22.0022 125.981 20.7648 128.864C20.6969 129.022 20.8931 129.165 21.0289 129.06C22.1455 128.192 22.9151 126.743 23.4583 125.121C25.0956 119.659 24.0921 114.257 23.4206 108.945C23.3678 108.53 23.6168 108.145 24.0242 108.07C24.4316 107.987 24.8013 108.274 24.8994 108.674C26.3933 114.732 25.3596 120.994 28.4002 124.601C30.1582 126.472 32.5348 127.626 35.1453 127.626C37.1221 127.626 38.548 126.894 39.5817 125.74C41.4453 123.047 42.4638 120.662 42.2224 111.118C42.2148 110.703 42.5091 110.349 42.9241 110.318C43.3315 110.296 43.6936 110.605 43.7238 111.02C44.169 117.697 43.5503 120.836 45.3309 124.412C45.3988 124.555 45.4516 124.684 45.4968 124.804C47.0813 127.355 49.3372 129.316 52.3853 129.316C57.1612 129.316 60.8431 118.029 60.0886 103.792H60.0811ZM13.9594 72.247C13.9594 72.247 13.899 72.2621 13.8688 72.2697C13.7858 72.247 13.7028 72.2244 13.6199 72.2017C13.733 72.2168 13.8462 72.2319 13.9518 72.247H13.9594ZM13.816 125.325C12.9333 124.918 12.3674 123.975 12.4202 123.009C12.5183 121.266 14.3064 120.187 15.8909 120.919C16.7736 121.326 17.3395 122.269 17.2866 123.235C17.1886 124.978 15.4004 126.049 13.816 125.325ZM39.974 73.4467C39.9287 73.424 39.8759 73.4089 39.8307 73.3863C39.891 73.4014 39.9438 73.4089 40.0042 73.424C39.9967 73.424 39.9891 73.4391 39.9816 73.4467H39.974Z" fill="#B0A8FE"/>
<path d="M14.3277 118.467C17.2094 119.239 18.6467 121.554 18.1737 123.319C17.7007 125.084 15.2987 126.37 12.4169 125.598C9.53521 124.826 8.09795 122.511 8.57092 120.746C9.0439 118.981 11.446 117.694 14.3277 118.467Z" fill="white" stroke="#141414" stroke-width="2"/>
<path d="M235.818 27.4334C237.704 29.8832 237.438 32.7069 235.923 33.8737C234.407 35.0406 231.61 34.5755 229.723 32.1256C227.837 29.6758 228.103 26.8521 229.618 25.6853C231.134 24.5184 233.931 24.9835 235.818 27.4334Z" fill="white" stroke="#141414" stroke-width="2"/>
<ellipse cx="14.748" cy="120.193" rx="2.5589" ry="3.41187" transform="rotate(-75 14.748 120.193)" fill="#141414"/>
<ellipse cx="235.053" cy="29.1337" rx="2.6431" ry="3.52413" transform="rotate(-37.5946 235.053 29.1337)" fill="#141414"/>
</svg>
